<svg xmlns="http://www.w3.org/2000/svg" width="40" height="40" viewBox="0 0 40 40">
    <rect width="40" height="40" rx="8" fill="#FFFFFF" opacity="0.2"/>
    <path d="M20 8C13.373 8 8 13.373 8 20C8 26.627 13.373 32 20 32C26.627 32 32 26.627 32 20C32 13.373 26.627 8 20 8ZM20 30C14.477 30 10 25.523 10 20C10 14.477 14.477 10 20 10C25.523 10 30 14.477 30 20C30 25.523 25.523 30 20 30Z" fill="#FFFFFF"/>
    <path d="M24 16H16C15.448 16 15 16.448 15 17V23C15 23.552 15.448 24 16 24H24C24.552 24 25 23.552 25 23V17C25 16.448 24.552 16 24 16ZM23 22H17V18H23V22Z" fill="#FFFFFF"/>
</svg>
